<svg class="qw" width="88" height="40" viewBox="0 0 88 40" fill="white" xmlns="http://www.w3.org/2000/svg">
    <path d="M85.1208 2.35725C85.1208 1.06148 84.0591 0 82.7128 0C81.3654 0 80.2637 1.06148 80.2637 2.35725C80.2637 3.65413 81.2842 4.67491 82.7128 4.67491C84.1002 4.67491 85.1208 3.65413 85.1208 2.35725Z" fill="#fed238"></path>
    <path d="M82.224 39.2854C84.8766 39.2854 87 37.95 87 33.5886V33.1959C87 27.7752 85.5303 25.143 83.3669 21.4888C81.2846 17.9931 80.7132 15.9505 80.7132 12.3359V12.1786C80.7132 10.7641 81.0812 9.78178 82.3875 9.78178C83.6115 9.78178 84.0195 10.6068 84.0195 11.6682V18.3462H86.8766V11.5109C86.8766 8.761 85.3257 7.03183 82.4686 7.03183C79.0812 7.03183 77.7338 9.50678 77.7338 12.7286V13.1213C77.7338 17.9931 79.1224 20.6639 81.2446 24.1607C83.3258 27.6179 84.0606 30.2887 84.0606 33.4324C84.0606 35.1605 83.9383 36.5355 82.3463 36.5355C81.2446 36.5355 80.7132 35.7501 80.7132 34.6105V27.5002H77.8561V34.6886C77.8561 37.6354 79.4081 39.2854 82.224 39.2854Z" fill="#fed238"></path>
    <path d="M71.0805 8.40758C71.0805 7.11181 70.0188 6.05033 68.6725 6.05033C67.3251 6.05033 66.2234 7.11181 66.2234 8.40758C66.2234 9.70446 67.2439 10.7252 68.6725 10.7252C70.0599 10.7252 71.0805 9.70446 71.0805 8.40758Z" fill="#fed238"></path>
    <path d="M70.3458 38.892H73.2029V13.0821H70.5093V23.6496L70.5904 29.4245L66.7139 13.0821H63.8156V38.892H66.5093V29.8172L66.3459 22.5882L70.3458 38.892Z" fill="#fed238"></path>
    <path d="M54.7146 4.16474C56.062 4.16474 57.1226 5.22511 57.1226 6.52199C57.1226 7.81886 56.102 8.83964 54.7146 8.83964C53.2861 8.83964 52.2655 7.81886 52.2655 6.52199C52.2655 5.22511 53.3672 4.16474 54.7146 4.16474Z" fill="#fed238"></path>
    <path d="M52.8371 11.1966H56.2245L59.8976 38.8919H56.9182L56.1845 33.0785H52.5514L51.7354 38.8919H48.8371L52.8371 11.1966ZM54.3877 17.7965L52.8368 30.3285H55.8574L54.3877 17.7965Z" fill="#fed238"></path>
    <path d="M40.4681 4.6363C40.4681 3.34052 39.4064 2.27904 38.0601 2.27904C36.7127 2.27904 35.611 3.34052 35.611 4.6363C35.611 5.93317 36.6316 6.95395 38.0601 6.95395C39.4475 6.95395 40.4681 5.93317 40.4681 4.6363Z" fill="#fed238"></path>
    <path d="M42.0599 38.8921H44.917V9.31034H40.7947L39.1616 21.9205L38.5902 26.7934L38.0187 31.3902L37.4885 26.7934L36.917 22.0382L35.1216 9.31034H30.9171V38.8921H33.7331V29.1507L33.5296 16.1082L34.2233 22.0789L36.4679 38.8921H39.2839L41.5696 22.0789L42.2644 16.1082L42.0599 29.1507V38.8921Z" fill="#fed238"></path>
    <path d="M21.0815 6.05033C22.4278 6.05033 23.4895 7.11181 23.4895 8.40758C23.4895 9.70446 22.4689 10.7252 21.0815 10.7252C19.6529 10.7252 18.6324 9.70446 18.6324 8.40758C18.6324 7.11181 19.7341 6.05033 21.0815 6.05033Z" fill="#fed238"></path>
    <path d="M16.0604 13.082H19.2443V34.6493C19.2443 35.7108 19.7746 36.5358 20.9586 36.5358C22.2649 36.5358 22.754 35.6712 22.754 34.6493V13.082H25.938V34.4535C25.938 37.6357 23.5712 39.2857 20.8763 39.2857C17.9381 39.2857 16.0604 37.6357 16.0604 34.8858V13.082Z" fill="#fed238"></path>
    <path d="M8.55047 2.75061C8.55047 1.45373 7.48876 0.393354 6.14249 0.393354C4.79507 0.393354 3.69337 1.45373 3.69337 2.75061C3.69337 4.04748 4.71393 5.06826 6.14249 5.06826C7.52991 5.06826 8.55047 4.04748 8.55047 2.75061Z" fill="#fed238"></path>
    <path d="M7.93822 7.38622V21.4098H4.18283V7.38622H1V38.8929H4.18283V24.239H7.93822V38.8929H11.1222V7.38622H7.93822Z" fill="#fed238"></path>
</svg>